<?xml version="1.0" encoding="UTF-8" standalone="no"?>
<!-- Created with Inkscape (http://www.inkscape.org/) -->

<svg
   width="73.29113mm"
   height="18.987989mm"
   viewBox="0 0 73.29113 18.987989"
   version="1.1"
   id="svg1"
   xml:space="preserve"
   sodipodi:docname="XAI-Logo-purple_font-embedded.svg"
   inkscape:version="1.3.2 (091e20e, 2023-11-25)"
   xmlns:inkscape="http://www.inkscape.org/namespaces/inkscape"
   xmlns:sodipodi="http://sodipodi.sourceforge.net/DTD/sodipodi-0.dtd"
   xmlns="http://www.w3.org/2000/svg"
   xmlns:svg="http://www.w3.org/2000/svg"><sodipodi:namedview
     id="namedview1"
     pagecolor="#ffffff"
     bordercolor="#000000"
     borderopacity="0.25"
     inkscape:showpageshadow="2"
     inkscape:pageopacity="0.0"
     inkscape:pagecheckerboard="0"
     inkscape:deskcolor="#d1d1d1"
     inkscape:document-units="mm"
     inkscape:zoom="1.6461746"
     inkscape:cx="138.50292"
     inkscape:cy="36.144403"
     inkscape:window-width="1392"
     inkscape:window-height="896"
     inkscape:window-x="2137"
     inkscape:window-y="96"
     inkscape:window-maximized="0"
     inkscape:current-layer="g7" /><defs
     id="defs1" /><g
     id="layer1"
     transform="translate(-5.2580539,-5.5364993)"><g
       id="g7"
       transform="translate(-27.80028,-27.153762)"><g
         id="text1"
         style="font-size:4.13219px;font-family:Roboto;-inkscape-font-specification:Roboto;fill:#afdde9;stroke:#8d8d8d;stroke-width:0.258667"
         aria-label="Artificial IntelligenceExplainable AIMarburg Universityhessian.ai"><path
           style="font-weight:500;-inkscape-font-specification:'Roboto Medium';fill:#000000;stroke:none;stroke-width:0.258668"
           d="m 70.285615,35.147785 h -1.137966 l -0.238085,0.683991 h -0.530648 l 1.109719,-2.937729 h 0.458011 l 1.111737,2.937729 H 70.525718 Z M 69.290903,34.73618 h 0.851458 l -0.425729,-1.218673 z m 3.195991,-0.639601 q -0.09685,-0.01614 -0.199749,-0.01614 -0.336951,0 -0.453976,0.258262 v 1.493077 h -0.490294 v -2.18312 h 0.468099 l 0.01211,0.244138 q 0.177556,-0.284492 0.492312,-0.284492 0.104919,0 0.17352,0.02825 z m 1.024977,-0.978571 v 0.530648 h 0.385375 v 0.36318 h -0.385375 v 1.218674 q 0,0.125095 0.04842,0.18159 0.05044,0.05448 0.177555,0.05448 0.08474,0 0.171502,-0.02018 v 0.379322 q -0.167466,0.04641 -0.322827,0.04641 -0.564948,0 -0.564948,-0.62346 v -1.236833 h -0.359145 v -0.36318 h 0.359145 v -0.530648 z m 1.281221,2.713768 h -0.490294 v -2.18312 h 0.490294 z M 74.272533,33.08169 q 0,-0.112989 0.07062,-0.187643 0.07264,-0.07465 0.205802,-0.07465 0.133166,0 0.205802,0.07465 0.07264,0.07465 0.07264,0.187643 0,0.110972 -0.07264,0.185626 -0.07264,0.07264 -0.205802,0.07264 -0.133166,0 -0.205802,-0.07264 -0.07062,-0.07465 -0.07062,-0.185626 z m 1.184373,2.750086 v -1.81994 H 75.12399 v -0.36318 h 0.332916 v -0.149308 q 0.002,-0.256244 0.108954,-0.439852 0.106937,-0.183608 0.302651,-0.276421 0.195714,-0.09281 0.470117,-0.09281 0.161414,0 0.308704,0.0343 0.149308,0.0343 0.308704,0.08676 l -0.07465,0.405552 q -0.278439,-0.09685 -0.508453,-0.09685 -0.223962,0 -0.324845,0.09887 -0.100884,0.09685 -0.100884,0.292562 v 0.137202 h 0.429764 v 0.36318 H 75.9472 v 1.81994 z m 1.731162,0 h -0.490294 v -2.18312 h 0.490294 z m 1.440617,-0.351075 q 0.183608,0 0.304668,-0.106937 0.12106,-0.106936 0.129131,-0.264315 h 0.462047 q -0.0081,0.203785 -0.127114,0.38134 -0.119042,0.175538 -0.322827,0.278439 -0.203785,0.102901 -0.439852,0.102901 -0.458012,0 -0.726362,-0.296598 -0.26835,-0.296597 -0.26835,-0.819174 v -0.05044 q 0,-0.498364 0.266333,-0.79698 0.266332,-0.300633 0.726361,-0.300633 0.389411,0 0.633549,0.227997 0.246156,0.225979 0.258262,0.595213 h -0.462047 q -0.0081,-0.187643 -0.129131,-0.308704 -0.119043,-0.12106 -0.304668,-0.12106 -0.238085,0 -0.367216,0.17352 -0.129131,0.171502 -0.131149,0.522577 v 0.07869 q 0,0.35511 0.127113,0.530647 0.129131,0.17352 0.371252,0.17352 z m 1.787657,0.351075 h -0.490294 v -2.18312 h 0.490294 z M 79.895783,33.08169 q 0,-0.112989 0.07062,-0.187643 0.07264,-0.07465 0.205803,-0.07465 0.133166,0 0.205802,0.07465 0.07264,0.07465 0.07264,0.187643 0,0.110972 -0.07264,0.185626 -0.07264,0.07264 -0.205802,0.07264 -0.133167,0 -0.205803,-0.07264 -0.07062,-0.07465 -0.07062,-0.185626 z m 2.358657,2.750086 q -0.03228,-0.06255 -0.05649,-0.203785 -0.23405,0.244138 -0.573019,0.244138 -0.32888,0 -0.5367,-0.187643 -0.20782,-0.187644 -0.20782,-0.464065 0,-0.349057 0.258262,-0.534682 0.260279,-0.187644 0.742503,-0.187644 h 0.300633 V 34.35484 q 0,-0.169484 -0.09483,-0.270367 -0.09483,-0.102902 -0.288527,-0.102902 -0.167467,0 -0.274403,0.08474 -0.106937,0.08272 -0.106937,0.211855 h -0.490294 q 0,-0.179573 0.119043,-0.334933 0.119042,-0.157379 0.322827,-0.246156 0.205803,-0.08878 0.458011,-0.08878 0.383358,0 0.611355,0.193697 0.227997,0.191678 0.23405,0.540735 v 0.984624 q 0,0.29458 0.08272,0.470117 v 0.0343 z m -0.538718,-0.353093 q 0.145272,0 0.272385,-0.07062 0.129131,-0.07062 0.193697,-0.189661 v -0.411605 h -0.264315 q -0.272386,0 -0.409588,0.09483 -0.137201,0.09483 -0.137201,0.268351 0,0.141237 0.09281,0.225979 0.09483,0.08272 0.252209,0.08272 z m 1.991441,0.353093 h -0.490294 v -3.099143 h 0.490294 z m 2.148819,0 h -0.508453 v -2.937729 h 0.508453 z m 1.035065,-2.18312 0.01412,0.252209 q 0.24212,-0.292563 0.635566,-0.292563 0.681973,0 0.694079,0.780839 v 1.442635 h -0.490294 v -1.414388 q 0,-0.20782 -0.09079,-0.306686 -0.08878,-0.100883 -0.292563,-0.100883 -0.296597,0 -0.44187,0.26835 v 1.553607 H 86.429 v -2.18312 z m 2.457524,-0.530648 v 0.530648 h 0.385375 v 0.36318 h -0.385375 v 1.218674 q 0,0.125095 0.04842,0.18159 0.05044,0.05448 0.177555,0.05448 0.08474,0 0.171502,-0.02018 v 0.379322 q -0.167466,0.04641 -0.322827,0.04641 -0.564948,0 -0.564948,-0.62346 v -1.236833 h -0.359145 v -0.36318 h 0.359145 v -0.530648 z m 1.721073,2.754121 q -0.466082,0 -0.756627,-0.292562 -0.288527,-0.29458 -0.288527,-0.782857 v -0.06053 q 0,-0.326862 0.125096,-0.583107 0.127113,-0.258262 0.35511,-0.401516 0.227996,-0.143255 0.508453,-0.143255 0.445905,0 0.688026,0.284492 0.244138,0.284491 0.244138,0.805051 v 0.197731 h -1.426494 q 0.0222,0.270368 0.179573,0.427747 0.159396,0.157378 0.399499,0.157378 0.336951,0 0.548806,-0.272386 l 0.264315,0.252209 q -0.131148,0.195714 -0.351074,0.304669 -0.217909,0.106936 -0.490294,0.106936 z m -0.05851,-1.870381 q -0.201767,0 -0.326863,0.141237 -0.123078,0.141237 -0.157378,0.393446 h 0.934182 v -0.03632 q -0.01614,-0.246156 -0.131149,-0.371252 -0.115007,-0.127113 -0.318792,-0.127113 z m 1.836081,1.830028 h -0.490294 v -3.099143 h 0.490294 z m 1.055242,0 H 93.41216 v -3.099143 h 0.490294 z m 1.055243,0 h -0.490294 v -2.18312 h 0.490294 z M 94.437138,33.08169 q 0,-0.112989 0.07062,-0.187643 0.07264,-0.07465 0.205803,-0.07465 0.133166,0 0.205802,0.07465 0.07264,0.07465 0.07264,0.187643 0,0.110972 -0.07264,0.185626 -0.07264,0.07264 -0.205802,0.07264 -0.133167,0 -0.205803,-0.07264 -0.07062,-0.07465 -0.07062,-0.185626 z m 0.968481,1.642384 q 0,-0.508453 0.238085,-0.811103 0.240103,-0.304669 0.635566,-0.304669 0.373269,0 0.587142,0.26028 l 0.02219,-0.219926 h 0.44187 v 2.116537 q 0,0.429763 -0.268351,0.677937 -0.266332,0.248174 -0.720308,0.248174 -0.240103,0 -0.470117,-0.100884 -0.227997,-0.09887 -0.34704,-0.26028 l 0.232032,-0.29458 q 0.225979,0.268351 0.556878,0.268351 0.244138,0 0.385375,-0.133167 0.141237,-0.131148 0.141237,-0.387392 v -0.14729 q -0.211856,0.236067 -0.564948,0.236067 -0.383358,0 -0.627496,-0.304668 -0.24212,-0.304669 -0.24212,-0.843387 z m 0.488276,0.04237 q 0,0.328881 0.133166,0.518542 0.135184,0.187643 0.373269,0.187643 0.296598,0 0.439853,-0.254226 v -0.960412 q -0.13922,-0.248173 -0.435817,-0.248173 -0.242121,0 -0.377305,0.191678 -0.133166,0.191679 -0.133166,0.564948 z m 2.901411,1.105684 q -0.466082,0 -0.756627,-0.292562 -0.288527,-0.29458 -0.288527,-0.782857 v -0.06053 q 0,-0.326862 0.125096,-0.583107 0.127113,-0.258262 0.35511,-0.401516 0.227997,-0.143255 0.508453,-0.143255 0.445905,0 0.688026,0.284492 0.244138,0.284491 0.244138,0.805051 v 0.197731 h -1.426493 q 0.02219,0.270368 0.179572,0.427747 0.159396,0.157378 0.399499,0.157378 0.336951,0 0.548807,-0.272386 l 0.264315,0.252209 q -0.131149,0.195714 -0.351075,0.304669 -0.217909,0.106936 -0.490294,0.106936 z m -0.05851,-1.870381 q -0.201767,0 -0.326862,0.141237 -0.123078,0.141237 -0.157379,0.393446 h 0.934182 v -0.03632 q -0.01614,-0.246156 -0.131149,-0.371252 -0.115007,-0.127113 -0.318792,-0.127113 z m 1.769497,-0.353092 0.0141,0.252209 q 0.24213,-0.292563 0.63557,-0.292563 0.68197,0 0.69408,0.780839 v 1.442635 h -0.49029 v -1.414388 q 0,-0.20782 -0.0908,-0.306686 -0.0888,-0.100883 -0.29256,-0.100883 -0.2966,0 -0.44187,0.26835 v 1.553607 h -0.4903 v -2.18312 z m 2.74,1.832045 q 0.18361,0 0.30467,-0.106937 0.12106,-0.106936 0.12913,-0.264315 h 0.46204 q -0.008,0.203785 -0.12711,0.38134 -0.11904,0.175538 -0.32283,0.278439 -0.20378,0.102901 -0.43985,0.102901 -0.45801,0 -0.72636,-0.296598 -0.26835,-0.296597 -0.26835,-0.819174 v -0.05044 q 0,-0.498364 0.26633,-0.79698 0.26633,-0.300633 0.72636,-0.300633 0.38941,0 0.63355,0.227997 0.24616,0.225979 0.25826,0.595213 h -0.46204 q -0.008,-0.187643 -0.12913,-0.308704 -0.11905,-0.12106 -0.30467,-0.12106 -0.23809,0 -0.36722,0.17352 -0.12913,0.171502 -0.13115,0.522577 v 0.07869 q 0,0.35511 0.12712,0.530647 0.12913,0.17352 0.37125,0.17352 z m 2.22751,0.391428 q -0.46608,0 -0.75663,-0.292562 -0.28853,-0.29458 -0.28853,-0.782857 v -0.06053 q 0,-0.326862 0.1251,-0.583107 0.12711,-0.258262 0.35511,-0.401516 0.228,-0.143255 0.50845,-0.143255 0.44591,0 0.68803,0.284492 0.24414,0.284491 0.24414,0.805051 v 0.197731 h -1.4265 q 0.0222,0.270368 0.17958,0.427747 0.15939,0.157378 0.39949,0.157378 0.33696,0 0.54881,-0.272386 l 0.26432,0.252209 q -0.13115,0.195714 -0.35108,0.304669 -0.21791,0.106936 -0.49029,0.106936 z m -0.0585,-1.870381 q -0.20176,0 -0.32686,0.141237 -0.12308,0.141237 -0.15738,0.393446 h 0.93419 v -0.03632 q -0.0161,-0.246156 -0.13115,-0.371252 -0.11501,-0.127113 -0.3188,-0.127113 z"
           id="path1" /><path
           style="font-weight:500;-inkscape-font-specification:'Roboto Medium';fill:#000000;stroke:none;stroke-width:0.258668"
           d="m 70.358251,39.685527 h -1.206567 v 0.903917 h 1.410352 v 0.407569 h -1.920823 v -2.937729 h 1.906699 v 0.411605 h -1.396228 v 0.811104 h 1.206567 z m 1.355875,-0.153343 0.41564,-0.718291 h 0.544772 l -0.66785,1.075419 0.690044,1.107701 h -0.540736 l -0.435817,-0.746538 -0.433799,0.746538 h -0.544771 l 0.690043,-1.107701 -0.665831,-1.075419 h 0.540736 z m 3.20608,0.395463 q 0,0.506436 -0.230015,0.809087 -0.230014,0.300633 -0.617407,0.300633 -0.359146,0 -0.575037,-0.236068 v 1.035065 h -0.490294 v -3.022471 h 0.451959 l 0.02018,0.221944 q 0.215891,-0.262297 0.587143,-0.262297 0.399499,0 0.625478,0.298615 0.227997,0.296598 0.227997,0.825227 z m -0.488277,-0.04237 q 0,-0.326862 -0.131148,-0.518541 -0.129131,-0.191679 -0.371252,-0.191679 -0.300633,0 -0.431782,0.248174 v 0.968482 q 0.133167,0.254226 0.435817,0.254226 0.23405,0 0.365199,-0.187643 0.133166,-0.189661 0.133166,-0.573019 z m 1.424476,1.111737 H 75.366111 V 37.89787 h 0.490294 z m 1.838098,0 q -0.03228,-0.06255 -0.05649,-0.203785 -0.234049,0.244139 -0.573018,0.244139 -0.328881,0 -0.536701,-0.187644 -0.20782,-0.187643 -0.20782,-0.464064 0,-0.349057 0.258262,-0.534683 0.26028,-0.187643 0.742503,-0.187643 h 0.300633 v -0.143255 q 0,-0.169484 -0.09483,-0.270368 -0.09483,-0.102901 -0.288526,-0.102901 -0.167467,0 -0.274404,0.08474 -0.106936,0.08272 -0.106936,0.211855 h -0.490294 q 0,-0.179572 0.119042,-0.334933 0.119043,-0.157378 0.322828,-0.246156 0.205802,-0.08878 0.458011,-0.08878 0.383357,0 0.611354,0.193696 0.227997,0.191679 0.23405,0.540736 v 0.984623 q 0,0.29458 0.08272,0.470118 v 0.0343 z m -0.538718,-0.353092 q 0.145272,0 0.272386,-0.07062 0.129131,-0.07062 0.193696,-0.189661 v -0.411605 h -0.264315 q -0.272385,0 -0.409587,0.09483 -0.137202,0.09483 -0.137202,0.26835 0,0.141237 0.09281,0.225979 0.09483,0.08272 0.252209,0.08272 z m 1.991441,0.353092 h -0.490294 v -2.18312 h 0.490294 z m -0.520559,-2.750085 q 0,-0.11299 0.07062,-0.187644 0.07264,-0.07465 0.205802,-0.07465 0.133166,0 0.205803,0.07465 0.07264,0.07465 0.07264,0.187644 0,0.110971 -0.07264,0.185625 -0.07264,0.07264 -0.205803,0.07264 -0.133166,0 -0.205802,-0.07264 -0.07062,-0.07465 -0.07062,-0.185625 z m 1.509218,0.566965 0.01412,0.252209 q 0.242121,-0.292562 0.635567,-0.292562 0.681973,0 0.694079,0.780838 v 1.442635 H 80.98936 v -1.414387 q 0,-0.20782 -0.0908,-0.306686 -0.08878,-0.100884 -0.292562,-0.100884 -0.296598,0 -0.44187,0.26835 v 1.553607 h -0.490294 v -2.18312 z m 3.147566,2.18312 q -0.03228,-0.06255 -0.05649,-0.203785 -0.23405,0.244139 -0.573019,0.244139 -0.32888,0 -0.5367,-0.187644 -0.207821,-0.187643 -0.207821,-0.464064 0,-0.349057 0.258262,-0.534683 0.26028,-0.187643 0.742503,-0.187643 h 0.300633 v -0.143255 q 0,-0.169484 -0.09483,-0.270368 -0.09483,-0.102901 -0.288527,-0.102901 -0.167467,0 -0.274403,0.08474 -0.106937,0.08272 -0.106937,0.211855 h -0.490294 q 0,-0.179572 0.119042,-0.334933 0.119043,-0.157378 0.322828,-0.246156 0.205802,-0.08878 0.458011,-0.08878 0.383358,0 0.611354,0.193696 0.227997,0.191679 0.23405,0.540736 v 0.984623 q 0,0.29458 0.08272,0.470118 v 0.0343 z m -0.538718,-0.353092 q 0.145273,0 0.272386,-0.07062 0.129131,-0.07062 0.193696,-0.189661 V 39.972036 H 82.9465 q -0.272385,0 -0.409587,0.09483 -0.137201,0.09483 -0.137201,0.26835 0,0.141237 0.09281,0.225979 0.09483,0.08272 0.252209,0.08272 z m 3.385652,-0.716274 q 0,0.508454 -0.227997,0.809087 -0.225979,0.300633 -0.62346,0.300633 -0.383357,0 -0.597231,-0.276421 l -0.02421,0.236067 H 84.213598 V 37.89787 h 0.490294 v 1.125861 q 0.211855,-0.250191 0.571001,-0.250191 0.399499,0 0.627495,0.296597 0.227997,0.296598 0.227997,0.829263 z m -0.490294,-0.04237 q 0,-0.35511 -0.125095,-0.532665 -0.125096,-0.177555 -0.363181,-0.177555 -0.318792,0 -0.447923,0.278439 v 0.899881 q 0.131148,0.284492 0.451958,0.284492 0.230015,0 0.35511,-0.171502 0.125096,-0.171502 0.129131,-0.518542 z m 1.422459,1.111737 H 86.572256 V 37.89787 h 0.490294 z m 1.495094,0.04035 q -0.466082,0 -0.756626,-0.292563 -0.288527,-0.29458 -0.288527,-0.782856 v -0.06053 q 0,-0.326863 0.125095,-0.583107 0.127114,-0.258262 0.355111,-0.401517 0.227996,-0.143254 0.508453,-0.143254 0.445905,0 0.688025,0.284491 0.244139,0.284492 0.244139,0.805051 v 0.197732 H 88.00682 q 0.02219,0.270368 0.179573,0.427746 0.159396,0.157378 0.399499,0.157378 0.336951,0 0.548806,-0.272385 l 0.264315,0.252209 q -0.131148,0.195714 -0.351075,0.304668 -0.217908,0.106937 -0.490294,0.106937 z m -0.05851,-1.870382 q -0.201767,0 -0.326863,0.141237 -0.123078,0.141237 -0.157378,0.393446 h 0.934182 v -0.03632 q -0.01614,-0.246156 -0.131149,-0.371251 -0.115007,-0.127114 -0.318792,-0.127114 z m 4.035341,1.146038 h -1.137967 l -0.238085,0.68399 h -0.530647 l 1.109719,-2.937729 h 0.458011 l 1.111737,2.937729 h -0.532666 z m -0.994712,-0.411605 h 0.851457 l -0.425729,-1.218674 z m 2.639114,1.095595 h -0.508453 v -2.937729 h 0.508453 z"
           id="path2" /><path
           style="font-weight:300;-inkscape-font-specification:'Roboto Light';fill:#000000;stroke:none;stroke-width:0.258668"
           d="m 69.04273,43.224522 1.083489,2.592707 1.087525,-2.592707 h 0.330898 v 2.937729 h -0.248174 v -1.279204 l 0.02018,-1.311486 -1.093578,2.59069 h -0.191678 l -1.089543,-2.580602 0.02018,1.293327 v 1.287275 h -0.248174 v -2.937729 z m 4.568007,2.937729 q -0.03632,-0.102902 -0.04641,-0.304669 -0.127114,0.165449 -0.324845,0.256244 -0.195715,0.08878 -0.415641,0.08878 -0.314756,0 -0.51047,-0.175537 -0.193697,-0.175538 -0.193697,-0.443888 0,-0.318792 0.264315,-0.504418 0.266333,-0.185626 0.740485,-0.185626 h 0.437835 v -0.248173 q 0,-0.23405 -0.145272,-0.367216 -0.143255,-0.135184 -0.419676,-0.135184 -0.252209,0 -0.417658,0.129131 -0.165449,0.129131 -0.165449,0.310721 l -0.24212,-0.002 q 0,-0.260279 0.24212,-0.44994 0.242121,-0.191679 0.595213,-0.191679 0.365199,0 0.575036,0.183608 0.211856,0.181591 0.217909,0.508453 v 1.033048 q 0,0.316774 0.06658,0.474152 v 0.02421 z m -0.758644,-0.17352 q 0.24212,0 0.431781,-0.117025 0.191679,-0.117025 0.278439,-0.312739 v -0.480206 h -0.431782 q -0.361163,0.004 -0.564948,0.133166 -0.203784,0.127114 -0.203784,0.351075 0,0.183608 0.135184,0.304669 0.137201,0.12106 0.35511,0.12106 z m 2.602795,-1.803798 q -0.07667,-0.01412 -0.163431,-0.01412 -0.225979,0 -0.383358,0.127114 -0.15536,0.125095 -0.221943,0.365198 v 1.49913 H 74.446053 V 43.97913 h 0.236067 l 0.004,0.34704 q 0.191678,-0.387393 0.615389,-0.387393 0.100884,0 0.159396,0.02623 z m 2.138732,0.907952 q 0,0.510471 -0.22598,0.811104 -0.225979,0.298615 -0.607318,0.298615 -0.455994,0 -0.690044,-0.338969 l -0.01009,0.298616 h -0.225979 v -3.099143 h 0.240102 v 1.232797 q 0.230015,-0.357128 0.681973,-0.357128 0.387393,0 0.611354,0.296598 0.22598,0.29458 0.22598,0.821192 z m -0.242121,-0.04237 q 0,-0.431782 -0.167467,-0.665832 -0.167466,-0.236067 -0.472135,-0.236067 -0.232032,0 -0.393445,0.115007 -0.161414,0.11299 -0.244139,0.332916 v 0.984623 q 0.181591,0.411605 0.64162,0.411605 0.298615,0 0.466082,-0.236067 0.169484,-0.236068 0.169484,-0.706185 z m 2.179085,0.835316 q -0.217909,0.316774 -0.696097,0.316774 -0.349057,0 -0.530647,-0.201767 -0.18159,-0.203785 -0.185626,-0.601266 V 43.97913 h 0.240103 v 1.390176 q 0,0.62346 0.504418,0.62346 0.524594,0 0.663814,-0.433799 V 43.97913 h 0.24212 v 2.183121 h -0.23405 z M 81.405,44.184933 q -0.07667,-0.01412 -0.163432,-0.01412 -0.225979,0 -0.383357,0.127114 -0.155361,0.125095 -0.221944,0.365198 v 1.49913 H 80.396164 V 43.97913 h 0.236068 l 0.004,0.34704 q 0.191679,-0.387393 0.61539,-0.387393 0.100883,0 0.159396,0.02623 z m 0.246156,0.865581 q 0,-0.512489 0.225979,-0.811104 0.227997,-0.300633 0.617408,-0.300633 0.445905,0 0.677937,0.35511 l 0.01211,-0.314757 h 0.225979 v 2.138732 q 0,0.421693 -0.236067,0.667849 -0.236068,0.246156 -0.639602,0.246156 -0.227997,0 -0.435817,-0.102901 -0.205802,-0.100884 -0.324845,-0.270368 l 0.135184,-0.145273 q 0.256244,0.314757 0.609337,0.314757 0.30265,0 0.472135,-0.179573 0.169484,-0.177555 0.175537,-0.494329 v -0.274403 q -0.232032,0.322827 -0.67592,0.322827 -0.379322,0 -0.609336,-0.302651 -0.230015,-0.30265 -0.230015,-0.817156 z m 0.244138,0.04237 q 0,0.417658 0.167467,0.659778 0.167467,0.240103 0.472135,0.240103 0.445905,0 0.631531,-0.399499 v -1.014888 q -0.08474,-0.209838 -0.244138,-0.318792 -0.159396,-0.110972 -0.383358,-0.110972 -0.304668,0 -0.474152,0.240103 -0.169485,0.238085 -0.169485,0.704167 z m 5.229803,-1.868363 v 2.005565 q -0.002,0.296597 -0.131149,0.516523 -0.12913,0.219926 -0.365198,0.338969 -0.23405,0.117025 -0.538718,0.117025 -0.464064,0 -0.744521,-0.252209 -0.278438,-0.254226 -0.288527,-0.702149 v -2.023724 h 0.246156 v 1.987405 q 0,0.371252 0.211856,0.577054 0.211855,0.203785 0.575036,0.203785 0.363181,0 0.573018,-0.205802 0.211856,-0.205803 0.211856,-0.573019 v -1.989423 z m 0.865582,0.754608 0.0081,0.37327 q 0.123078,-0.201767 0.306686,-0.306686 0.183609,-0.106937 0.405552,-0.106937 0.351075,0 0.522577,0.197732 0.171502,0.197732 0.17352,0.593195 v 1.432547 h -0.240103 v -1.434565 q -0.002,-0.292562 -0.125096,-0.435817 -0.12106,-0.143254 -0.38941,-0.143254 -0.223962,0 -0.397481,0.141237 -0.171502,0.139219 -0.254227,0.377304 v 1.495095 H 87.760664 V 43.97913 Z m 2.310233,2.183121 h -0.24212 V 43.97913 h 0.24212 z m -0.284491,-2.814652 q 0,-0.0686 0.04439,-0.115007 0.04439,-0.04842 0.12106,-0.04842 0.07667,0 0.12106,0.04842 0.04641,0.04641 0.04641,0.115007 0,0.0686 -0.04641,0.115008 -0.04439,0.04641 -0.12106,0.04641 -0.07667,0 -0.12106,-0.04641 -0.04439,-0.04641 -0.04439,-0.115008 z m 1.620188,2.481736 0.663814,-1.850205 h 0.248173 l -0.815139,2.183121 H 91.537743 L 90.718569,43.97913 h 0.248173 z m 2.126627,0.373269 q -0.278439,0 -0.504418,-0.137202 -0.223961,-0.137201 -0.349057,-0.38134 -0.125096,-0.246155 -0.125096,-0.550824 v -0.08676 q 0,-0.314756 0.121061,-0.566965 0.123078,-0.252209 0.340986,-0.395464 0.217909,-0.145272 0.472135,-0.145272 0.397481,0 0.629513,0.272386 0.23405,0.270368 0.23405,0.740485 v 0.135184 h -1.557642 v 0.04641 q 0,0.371252 0.211856,0.619425 0.213873,0.246156 0.5367,0.246156 0.193697,0 0.340987,-0.07062 0.149307,-0.07062 0.270368,-0.225979 l 0.151325,0.115007 q -0.266333,0.385375 -0.772768,0.385375 z m -0.04439,-2.058024 q -0.272385,0 -0.460029,0.199749 -0.185626,0.199749 -0.225979,0.5367 h 1.309468 V 44.8548 Q 94.332219,44.540043 94.162735,44.342311 93.99325,44.14458 93.718847,44.14458 Z m 2.342515,0.04035 q -0.07667,-0.01412 -0.163431,-0.01412 -0.225979,0 -0.383358,0.127114 -0.15536,0.125095 -0.221943,0.365198 v 1.49913 H 95.052527 V 43.97913 h 0.236067 l 0.004,0.34704 q 0.191678,-0.387393 0.615389,-0.387393 0.100884,0 0.159396,0.02623 z m 1.68879,1.422458 q 0,-0.179573 -0.145272,-0.288527 -0.143255,-0.108954 -0.433799,-0.169484 -0.290545,-0.06255 -0.451958,-0.141237 -0.159396,-0.08071 -0.238086,-0.195714 -0.07667,-0.115008 -0.07667,-0.278439 0,-0.258262 0.215891,-0.425729 0.21589,-0.169484 0.552842,-0.169484 0.365198,0 0.585124,0.18159 0.221944,0.179573 0.221944,0.470118 h -0.242121 q 0,-0.191679 -0.161413,-0.318792 -0.159396,-0.127113 -0.403534,-0.127113 -0.238086,0 -0.383358,0.106936 -0.143255,0.104919 -0.143255,0.274403 0,0.163432 0.119043,0.254227 0.12106,0.08878 0.437835,0.163431 0.318792,0.07465 0.47617,0.159396 0.159396,0.08474 0.236067,0.203785 0.07667,0.119043 0.07667,0.288527 0,0.276421 -0.223962,0.44187 -0.221943,0.165449 -0.581089,0.165449 -0.38134,0 -0.619425,-0.183608 -0.236067,-0.185626 -0.236067,-0.4681 h 0.24212 q 0.01412,0.211856 0.177555,0.330898 0.165449,0.117025 0.435817,0.117025 0.252209,0 0.40757,-0.110972 0.15536,-0.110972 0.15536,-0.280456 z m 1.055243,0.55486 H 98.563274 V 43.97913 h 0.242121 z m -0.284492,-2.814652 q 0,-0.0686 0.04439,-0.115007 0.04439,-0.04842 0.12106,-0.04842 0.07667,0 0.12106,0.04842 0.04641,0.04641 0.04641,0.115007 0,0.0686 -0.04641,0.115008 -0.04439,0.04641 -0.12106,0.04641 -0.07667,0 -0.12106,-0.04641 -0.04439,-0.04641 -0.04439,-0.115008 z m 1.315522,0.07264 v 0.558894 h 0.451955 v 0.197732 h -0.451955 v 1.454741 q 0,0.18159 0.06456,0.270368 0.06658,0.08878 0.21993,0.08878 0.0605,0 0.19571,-0.02018 l 0.0101,0.197732 q -0.0948,0.0343 -0.25826,0.0343 -0.248177,0 -0.361166,-0.143255 -0.11299,-0.145272 -0.11299,-0.425728 V 44.176862 H 99.192788 V 43.97913 h 0.401516 v -0.558894 z m 1.644405,2.394975 0.63758,-1.836081 h 0.26028 l -0.93216,2.554372 -0.0484,0.11299 q -0.17957,0.397481 -0.55486,0.397481 -0.0868,0 -0.18562,-0.02825 l -0.002,-0.199749 0.1251,0.01211 q 0.17755,0 0.28651,-0.08878 0.11097,-0.08676 0.18764,-0.300633 l 0.10694,-0.29458 -0.82321,-2.164961 h 0.26431 z"
           id="path3" /><path
           style="font-weight:300;-inkscape-font-specification:'Roboto Light';fill:#7a46eb;stroke:none;stroke-width:0.258668"
           d="m 68.897457,49.513602 q 0.119043,-0.195714 0.304669,-0.302651 0.185626,-0.106937 0.405552,-0.106937 0.351074,0 0.522576,0.197732 0.171503,0.197732 0.17352,0.593196 v 1.432546 h -0.240103 v -1.434564 q -0.002,-0.292562 -0.125095,-0.435817 -0.121061,-0.143255 -0.389411,-0.143255 -0.223961,0 -0.397481,0.141237 -0.171502,0.13922 -0.254227,0.377305 v 1.495094 h -0.240102 v -3.099143 h 0.240102 z m 2.873164,1.854239 q -0.278438,0 -0.504418,-0.137201 -0.223961,-0.137202 -0.349057,-0.38134 -0.125095,-0.246156 -0.125095,-0.550824 v -0.08676 q 0,-0.314757 0.12106,-0.566966 0.123078,-0.252209 0.340986,-0.395463 0.217909,-0.145273 0.472135,-0.145273 0.397482,0 0.629514,0.272386 0.23405,0.270368 0.23405,0.740485 v 0.135184 h -1.557642 v 0.04641 q 0,0.371251 0.211855,0.619425 0.213873,0.246156 0.5367,0.246156 0.193697,0 0.340987,-0.07062 0.149308,-0.07062 0.270368,-0.225979 l 0.151325,0.115007 q -0.266332,0.385375 -0.772768,0.385375 z m -0.04439,-2.058024 q -0.272385,0 -0.460029,0.199749 -0.185625,0.19975 -0.225979,0.536701 h 1.309469 v -0.02623 Q 72.339604,49.70528 72.17012,49.507549 72.000636,49.309817 71.726232,49.309817 Z m 2.641132,1.462811 q 0,-0.179572 -0.145273,-0.288527 -0.143254,-0.108954 -0.433799,-0.169484 -0.290544,-0.06255 -0.451958,-0.141237 -0.159396,-0.08071 -0.238085,-0.195714 -0.07667,-0.115007 -0.07667,-0.278439 0,-0.258261 0.215891,-0.425728 0.215891,-0.169485 0.552842,-0.169485 0.365198,0 0.585124,0.181591 0.221944,0.179573 0.221944,0.470117 h -0.24212 q 0,-0.191679 -0.161414,-0.318792 -0.159396,-0.127113 -0.403534,-0.127113 -0.238085,0 -0.383358,0.106936 -0.143254,0.104919 -0.143254,0.274404 0,0.163431 0.119042,0.254226 0.121061,0.08878 0.437835,0.163432 0.318792,0.07465 0.47617,0.159396 0.159396,0.08474 0.236068,0.203784 0.07667,0.119043 0.07667,0.288527 0,0.276421 -0.223961,0.44187 -0.221944,0.165449 -0.581089,0.165449 -0.38134,0 -0.619425,-0.183608 -0.236068,-0.185625 -0.236068,-0.468099 h 0.242121 q 0.01412,0.211855 0.177555,0.330898 0.165449,0.117025 0.435817,0.117025 0.252208,0 0.407569,-0.110972 0.155361,-0.110972 0.155361,-0.280457 z m 2.092325,0 q 0,-0.179572 -0.145273,-0.288527 -0.143254,-0.108954 -0.433799,-0.169484 -0.290545,-0.06255 -0.451958,-0.141237 -0.159396,-0.08071 -0.238086,-0.195714 -0.07667,-0.115007 -0.07667,-0.278439 0,-0.258261 0.215891,-0.425728 0.215891,-0.169485 0.552842,-0.169485 0.365198,0 0.585124,0.181591 0.221944,0.179573 0.221944,0.470117 h -0.242121 q 0,-0.191679 -0.161413,-0.318792 -0.159396,-0.127113 -0.403534,-0.127113 -0.238086,0 -0.383358,0.106936 -0.143255,0.104919 -0.143255,0.274404 0,0.163431 0.119043,0.254226 0.12106,0.08878 0.437835,0.163432 0.318792,0.07465 0.47617,0.159396 0.159396,0.08474 0.236068,0.203784 0.07667,0.119043 0.07667,0.288527 0,0.276421 -0.223961,0.44187 -0.221944,0.165449 -0.58109,0.165449 -0.38134,0 -0.619425,-0.183608 -0.236067,-0.185625 -0.236067,-0.468099 h 0.24212 q 0.01412,0.211855 0.177555,0.330898 0.165449,0.117025 0.435817,0.117025 0.252209,0 0.40757,-0.110972 0.155361,-0.110972 0.155361,-0.280457 z m 1.055241,0.55486 h -0.24212 v -2.18312 h 0.24212 z m -0.284491,-2.814651 q 0,-0.0686 0.04439,-0.115007 0.04439,-0.04842 0.121061,-0.04842 0.07667,0 0.12106,0.04842 0.04641,0.04641 0.04641,0.115007 0,0.0686 -0.04641,0.115007 -0.04439,0.04641 -0.12106,0.04641 -0.07667,0 -0.121061,-0.04641 -0.04439,-0.04641 -0.04439,-0.115007 z m 2.318304,2.814651 q -0.03632,-0.102901 -0.04641,-0.304668 -0.127114,0.165449 -0.324846,0.256244 -0.195714,0.08878 -0.41564,0.08878 -0.314756,0 -0.510471,-0.175537 -0.193696,-0.175537 -0.193696,-0.443888 0,-0.318792 0.264315,-0.504417 0.266333,-0.185626 0.740485,-0.185626 h 0.437835 v -0.248174 q 0,-0.234049 -0.145272,-0.367216 -0.143255,-0.135184 -0.419676,-0.135184 -0.252209,0 -0.417658,0.129131 -0.165449,0.129131 -0.165449,0.310722 l -0.24212,-0.002 q 0,-0.26028 0.24212,-0.449941 0.242121,-0.191679 0.595213,-0.191679 0.365198,0 0.575036,0.183609 0.211856,0.18159 0.217909,0.508453 v 1.033047 q 0,0.316775 0.06658,0.474153 v 0.02421 z m -0.758644,-0.17352 q 0.24212,0 0.431781,-0.117025 0.191679,-0.117025 0.278439,-0.312739 v -0.480205 h -0.431782 q -0.361163,0.004 -0.564948,0.133166 -0.203784,0.127113 -0.203784,0.351075 0,0.183608 0.135184,0.304668 0.137201,0.12106 0.35511,0.12106 z m 1.823974,-2.0096 0.0081,0.373269 q 0.123078,-0.201767 0.306686,-0.306686 0.183609,-0.106937 0.405552,-0.106937 0.351075,0 0.522577,0.197732 0.171502,0.197732 0.17352,0.593196 v 1.432546 h -0.240103 v -1.434564 q -0.002,-0.292562 -0.125096,-0.435817 -0.12106,-0.143255 -0.38941,-0.143255 -0.223962,0 -0.397481,0.141237 -0.171502,0.13922 -0.254227,0.377305 v 1.495094 h -0.240103 v -2.18312 z m 2.017671,2.037848 q 0,-0.07062 0.04439,-0.119043 0.04641,-0.05044 0.127113,-0.05044 0.08071,0 0.127114,0.05044 0.04641,0.04842 0.04641,0.119043 0,0.07062 -0.04641,0.117025 -0.04641,0.04439 -0.127114,0.04439 -0.08071,0 -0.127113,-0.04439 -0.04439,-0.04641 -0.04439,-0.117025 z m 2.386905,0.145272 q -0.03632,-0.102901 -0.04641,-0.304668 -0.127113,0.165449 -0.324845,0.256244 -0.195714,0.08878 -0.41564,0.08878 -0.314757,0 -0.510471,-0.175537 -0.193696,-0.175537 -0.193696,-0.443888 0,-0.318792 0.264315,-0.504417 0.266332,-0.185626 0.740485,-0.185626 h 0.437835 v -0.248174 q 0,-0.234049 -0.145273,-0.367216 -0.143254,-0.135184 -0.419675,-0.135184 -0.252209,0 -0.417658,0.129131 -0.165449,0.129131 -0.165449,0.310722 l -0.242121,-0.002 q 0,-0.26028 0.242121,-0.449941 0.24212,-0.191679 0.595213,-0.191679 0.365198,0 0.575036,0.183609 0.211856,0.18159 0.217909,0.508453 v 1.033047 q 0,0.316775 0.06658,0.474153 v 0.02421 z m -0.758644,-0.17352 q 0.24212,0 0.431781,-0.117025 0.191679,-0.117025 0.278439,-0.312739 v -0.480205 h -0.431782 q -0.361163,0.004 -0.564948,0.133166 -0.203785,0.127113 -0.203785,0.351075 0,0.183608 0.135184,0.304668 0.137202,0.12106 0.355111,0.12106 z m 1.864327,0.17352 h -0.24212 v -2.18312 h 0.24212 z M 85.83984,48.512837 q 0,-0.0686 0.04439,-0.115007 0.04439,-0.04842 0.12106,-0.04842 0.07667,0 0.121061,0.04842 0.04641,0.04641 0.04641,0.115007 0,0.0686 -0.04641,0.115007 -0.04439,0.04641 -0.121061,0.04641 -0.07667,0 -0.12106,-0.04641 -0.04439,-0.04641 -0.04439,-0.115007 z"
           id="path4" /></g><path
         style="font-weight:bold;font-size:25.4px;font-family:Roboto;-inkscape-font-specification:'Roboto Bold';stroke-width:0.265"
         d="m 56.240137,51.430202 q -0.248047,-0.483691 -0.359668,-1.203027 -1.302246,1.451074 -3.385839,1.451074 -1.971973,0 -3.274219,-1.141015 -1.289844,-1.141016 -1.289844,-2.877344 0,-2.133203 1.575098,-3.274219 1.5875,-1.141015 4.576465,-1.153418 h 1.649511 v -0.768945 q 0,-0.930176 -0.483691,-1.488281 -0.471289,-0.558106 -1.500684,-0.558106 -0.905371,0 -1.426269,0.434082 -0.508496,0.434082 -0.508496,1.190625 h -3.584278 q 0,-1.16582 0.719336,-2.158007 0.719336,-0.992188 2.033985,-1.550293 1.314648,-0.570508 2.951757,-0.570508 2.480469,0 3.931543,1.252637 1.463477,1.240234 1.463477,3.49746 v 5.8167 q 0.0124,1.909961 0.533301,2.889746 v 0.210839 z m -2.96416,-2.492871 q 0.79375,0 1.463477,-0.347265 0.669726,-0.359668 0.992187,-0.954981 v -2.306836 h -1.339453 q -2.691308,0 -2.864941,1.860352 l -0.0124,0.21084 q 0,0.669726 0.47129,1.103808 0.471289,0.434082 1.289843,0.434082 z m 12.588379,2.492871 h -3.59668 V 38.010867 h 3.59668 z m -3.80752,-16.891991 q 0,-0.806153 0.533301,-1.327051 0.545703,-0.520899 1.475879,-0.520899 0.917773,0 1.463476,0.520899 0.545704,0.520898 0.545704,1.327051 0,0.818554 -0.558106,1.339453 -0.545703,0.520898 -1.451074,0.520898 -0.905371,0 -1.463477,-0.520898 -0.545703,-0.520899 -0.545703,-1.339453 z"
         id="text5"
         aria-label="ai" /><path
         id="path5"
         style="fill:#7a46eb;fill-opacity:1;stroke:none;stroke-width:0.0902732;stroke-opacity:1"
         d="m 33.068728,49.22683 4.508893,-4.508893 -4.519287,-4.519288 2.166921,-2.166919 4.519286,4.519287 4.553949,-4.553949 2.201582,2.201581 -4.553949,4.553949 4.508888,4.508889 -2.166919,2.16692 -4.508889,-4.508889 -4.508893,4.508893 z" /></g></g></svg>
